<?xml version="1.0" encoding="UTF-8"?>
<svg width="32px" height="32px" viewBox="0 0 32 32" version="1.1" xmlns="http://www.w3.org/2000/svg" xmlns:xlink="http://www.w3.org/1999/xlink">
    <!-- Generator: Sketch 43.2 (39069) - http://www.bohemiancoding.com/sketch -->
    <title>favicon</title>
    <desc>Created with Sketch.</desc>
    <defs></defs>
    <g id="Page-1" stroke="none" stroke-width="1" fill="none" fill-rule="evenodd">
        <g id="favicon" fill="#EF363F">
            <g id="Scarlet" transform="translate(16.000000, 16.500000) scale(-1, 1) rotate(24.000000) translate(-16.000000, -16.500000) translate(6.000000, 3.000000)">
                <path d="M9.67062114,2.89475608 C9.39611354,2.45378862 8.8236179,2.31917749 8.3542227,2.22528729 C8.36190721,-0.524746175 4.42253098,-0.302996507 2.72767066,0.646454974 C0.415701879,1.94192877 -0.0206072511,4.44911365 0.0692587685,6.91030288 C0.170865004,9.69747045 0.690849859,11.9056836 2.45273614,14.1354177 C4.19455733,16.339411 6.89715513,17.5243265 9.67104806,18.0106566 C11.0000405,18.2437997 12.2073617,18.3341031 13.195461,19.4082492 C14.0294433,20.3146589 14.6143195,21.4999963 15.1955669,22.5488237 C15.6946329,23.4495367 16.0312569,24.7030236 16.6319291,25.5275695 C17.4334656,26.6291442 18.4113189,25.8605105 19.2869256,25.1081229 C20.297438,24.2396913 19.868173,24.3683947 18.9727147,23.5714885 C18.4074767,23.0680682 17.9596408,22.3416323 17.5589792,21.7318735 C16.6985281,20.4220524 15.9520638,19.0314225 15.089905,17.709153 C15.8446942,17.8256191 16.4630834,18.2343052 17.1984479,18.3925471 C15.6007111,16.8065412 14.4533718,15.1452121 13.3636663,13.1154958 C12.2995758,11.134096 11.5358213,9.18708753 9.91076193,7.54706834 C8.83365045,6.46026288 7.52877877,5.55701803 7.68780533,3.92839226 C8.3943529,3.7652976 9.13910953,3.22685311 9.86614911,3.24731907 C9.78482143,3.14245742 9.74277011,2.99792981 9.67062114,2.89475608" id="Fill-18"></path>
                <path d="M4.78339556,16.0087168 C4.28497001,16.200295 3.26527886,17.0400321 2.58626744,16.9796892 C1.92475961,16.9206122 1.52858067,15.8122859 0.747322642,16.5237415 C2.26629318,16.0720136 1.90725602,18.0650177 2.94210272,18.5747677 C2.69961389,17.706969 2.55488904,17.5892371 3.40274612,17.1225289 C3.92956164,16.8326297 4.57527354,16.5285943 5.14350001,16.3100094" id="Fill-19"></path>
                <path d="M6.95905803,17.1811242 C6.61453605,17.5858015 5.52860619,19.957405 4.90317285,20.2262052 C4.29396235,20.4878318 3.40917696,19.702952 3.06828377,20.6971331 C3.62650748,20.1377534 4.06859878,20.340825 4.5162301,20.677241 C4.56469469,20.7136644 4.50526236,21.025915 3.96099903,21.5042489 C4.15135582,21.6824357 4.78611993,20.8900397 4.84903988,20.9400733 C5.19211754,21.2128867 5.55510692,21.4737601 5.98924959,21.4577493 C5.35549137,20.8104344 5.17149016,20.7756211 5.68912697,19.9645786 C6.01102235,19.4605253 7.11032177,17.7846612 7.50329883,17.3234388" id="Fill-20"></path>
            </g>
        </g>
    </g>
</svg>