<?xml version="1.0" encoding="UTF-8"?>
<svg width="150px" height="50px" viewBox="0 0 150 50" version="1.1" xmlns="http://www.w3.org/2000/svg" xmlns:xlink="http://www.w3.org/1999/xlink">
    <!-- Generator: Sketch 43.2 (39069) - http://www.bohemiancoding.com/sketch -->
    <title>small</title>
    <desc>Created with Sketch.</desc>
    <defs></defs>
    <g id="Page-1" stroke="none" stroke-width="1" fill="none" fill-rule="evenodd">
        <g id="small">
            <g id="Logo" transform="translate(5.000000, 3.000000)">
                <g id="Text" transform="translate(0.000000, 11.094323)" fill="#FFFFFF">
                    <path d="M3.52587796,18.6647413 L3.52587796,0.851160839 L2.65757783,0.851160839 L2.65757783,18.6647413 L3.52587796,18.6647413 Z M13.622391,20.2657343 L0.15364259,20.2657343 L0.15364259,18.6647413 L1.82966376,18.6647413 L1.82966376,0.851160839 L0.15364259,0.851160839 L0.15364259,0 L6.8779203,0 L6.8779203,0.851160839 L5.20189913,0.851160839 L5.20189913,18.6647413 L12.7540909,18.6647413 L12.7540909,16.8813566 L13.622391,16.8813566 L13.622391,20.2657343 Z M21.4729909,0.851160839 L20.6450769,0.851160839 L17.5151578,18.6647413 L18.3430719,18.6647413 L21.4729909,0.851160839 Z M23.8961541,9.28170629 L22.7855376,2.9587972 L21.6749212,9.28170629 L23.8961541,9.28170629 Z M28.1568826,20.2657343 L23.9567331,20.2657343 L23.9567331,18.6647413 L25.5317892,18.6647413 L24.0576983,10.1328671 L21.53357,10.1328671 L20.0392861,18.6647413 L21.4326049,18.6647413 L21.4326049,20.2657343 L14.6881341,20.2657343 L14.6881341,18.6647413 L16.6468577,18.6647413 L19.7767767,0.851160839 L18.0603695,0.851160839 L18.0603695,0 L24.7846472,0 L24.7846472,0.851160839 L23.2701703,0.851160839 L26.4000893,18.6647413 L28.1568826,18.6647413 L28.1568826,20.2657343 Z M40.5509134,0.851160839 L39.7229993,0.851160839 L30.8380678,18.6647413 L31.6861749,18.6647413 L40.5509134,0.851160839 Z M42.6711811,20.2657343 L29.2226257,20.2657343 L29.2226257,18.6647413 L29.9899607,18.6647413 L38.8748922,0.851160839 L30.0505398,0.851160839 L30.0505398,2.53321678 L29.2226257,2.53321678 L29.2226257,0 L42.6711811,0 L42.6711811,0.851160839 L42.2673206,0.851160839 L33.3823891,18.6647413 L41.843267,18.6647413 L41.843267,16.8813566 L42.6711811,16.8813566 L42.6711811,20.2657343 Z M50.2996577,10.6192448 L49.8150251,9.56542657 L46.7860712,18.6647413 L47.6139852,18.6647413 L50.2996577,10.6192448 Z M53.5507349,0.851160839 L52.6824348,0.851160839 L50.1583065,8.49134266 L50.6429392,9.56542657 L53.5507349,0.851160839 Z M57.1854796,0.851160839 L55.2065631,0.851160839 L49.3101994,18.6647413 L50.4410089,18.6647413 L50.4410089,20.2657343 L43.7369242,20.2657343 L43.7369242,18.6647413 L45.9581571,18.6647413 L49.3101994,8.49134266 L45.7966129,0.851160839 L43.7369242,0.851160839 L43.7369242,0 L47.9168806,0 L47.9168806,0.851160839 L46.6245269,0.851160839 L49.6534809,7.43752448 L51.8545207,0.851160839 L50.4410089,0.851160839 L50.4410089,0 L57.1854796,0 L57.1854796,0.851160839 Z M61.6234581,18.685007 L61.6234581,0.851160839 L60.775351,0.851160839 L60.775351,18.685007 L61.6234581,18.685007 Z M70.3872314,16.9826853 C70.7507059,16.3139161 70.9324432,15.6248811 70.9324432,14.9561119 C70.9324432,14.2873427 70.831478,13.6793706 70.6295478,13.1321958 C70.4276175,12.6255524 70.1449151,12.1391748 69.8016337,11.7135944 C69.0141057,10.8016364 68.0650334,10.2747273 66.934224,10.1328671 C66.7524867,10.1126014 66.5707495,10.0923357 66.3890123,10.1126014 C66.187082,10.1328671 66.0053448,10.1328671 65.8236075,10.1328671 L65.8236075,9.30197203 L66.7928728,9.30197203 C67.8832962,9.30197203 68.8323684,8.89665734 69.6400895,8.06576224 C70.4680036,7.23486713 70.8718641,6.22158042 70.8718641,5.06643357 C70.8718641,3.89102098 70.4680036,2.898 69.6400895,2.0671049 C68.8121754,1.25647552 67.8227171,0.851160839 66.6717146,0.851160839 L63.2994793,0.851160839 L63.2994793,18.685007 L68.8727545,18.685007 C69.5189313,18.2391608 70.023757,17.6717203 70.3872314,16.9826853 Z M71.4776549,13.2132587 C71.6391991,13.7199021 71.7199712,14.2670769 71.7199712,14.8953147 C71.7199712,15.5235524 71.598813,16.1517902 71.3363037,16.8205594 C71.0737943,17.4690629 70.7305129,18.0567692 70.2862663,18.5836783 C69.296808,19.6982937 68.1054195,20.2657343 66.6717146,20.2657343 L58.2512227,20.2657343 L58.2512227,18.685007 L59.9272439,18.685007 L59.9272439,0.851160839 L58.2512227,0.851160839 L58.2512227,0 L66.6717146,0 C68.0650334,0 69.256422,0.486377622 70.2458803,1.4793986 C71.2353385,2.47241958 71.7199712,3.6680979 71.7199712,5.06643357 C71.6997781,6.09998601 71.3968828,7.05247552 70.811285,7.9239021 C70.2256872,8.77506294 69.4583522,9.4033007 68.50928,9.78834965 C70.003564,10.4976503 70.9930222,11.6325315 71.4776549,13.2132587 Z M76.1579496,18.6647413 L76.1579496,0.851160839 L75.3300356,0.851160839 L75.3300356,18.6647413 L76.1579496,18.6647413 Z M79.509992,20.2657343 L72.7857143,20.2657343 L72.7857143,18.6647413 L74.4617355,18.6647413 L74.4617355,0.851160839 L72.7857143,0.851160839 L72.7857143,0 L79.509992,0 L79.509992,0.851160839 L77.8339708,0.851160839 L77.8339708,18.6647413 L79.509992,18.6647413 L79.509992,20.2657343 Z" id="lazybi"></path>
                    <path d="M100.081027,18.6647413 L100.081027,0.851160839 L99.2531133,0.851160839 L99.2531133,18.6647413 L100.081027,18.6647413 Z M109.349626,9.99100699 C109.349626,8.95745455 109.147696,7.94416783 108.784222,6.93088112 C108.380361,5.93786014 107.855342,5.0259021 107.188973,4.21527273 C106.522603,3.40464336 105.714882,2.71560839 104.786002,2.14816783 C103.857123,1.58072727 102.847472,1.19567832 101.777242,0.993020979 L101.777242,18.6647413 L103.715772,18.6647413 C105.432179,17.9554406 106.805305,16.8002937 107.835149,15.2398322 C108.844801,13.6996364 109.349626,11.9567832 109.349626,9.99100699 Z M110.17754,10.1328671 C110.17754,11.5312028 109.915031,12.8484755 109.390012,14.0644196 C108.864994,15.3208951 108.138045,16.394979 107.229359,17.3069371 C106.320672,18.2188951 105.250442,18.9484615 104.018667,19.4753706 C102.786893,20.0022797 101.474346,20.2657343 100.081027,20.2657343 L96.7289851,20.2657343 L96.7289851,18.6647413 L98.4050062,18.6647413 L98.4050062,0.851160839 L96.7289851,0.851160839 L96.7289851,0 L100.081027,0 C101.474346,0 102.7667,0.263454545 104.018667,0.790363636 C105.250442,1.31727273 106.320672,2.04683916 107.229359,2.9587972 C108.138045,3.87075524 108.864994,4.9651049 109.390012,6.20131469 C109.915031,7.41725874 110.17754,8.73453147 110.17754,10.1328671 Z M114.615519,18.6647413 L114.615519,0.851160839 L113.767412,0.851160839 L113.767412,18.6647413 L114.615519,18.6647413 Z M124.712032,20.2657343 L111.243284,20.2657343 L111.243284,18.6647413 L112.919305,18.6647413 L112.919305,0.851160839 L111.243284,0.851160839 L111.243284,0 L124.712032,0 L124.712032,3.38437762 L123.863925,3.38437762 L123.863925,0.851160839 L116.29154,0.851160839 L116.29154,9.28170629 L119.663775,9.28170629 L119.663775,10.1328671 L116.29154,10.1328671 L116.29154,18.6647413 L123.863925,18.6647413 L123.863925,16.8813566 L124.712032,16.8813566 L124.712032,20.2657343 Z M128.927887,18.6647413 L128.927887,0.851160839 L128.180745,0.851160839 L128.180745,18.6647413 L128.927887,18.6647413 Z M140.922545,20.2657343 L136.722395,20.2657343 L136.722395,18.6647413 L138.398416,18.6647413 L138.398416,14.3481399 C138.398416,13.2740559 137.994556,12.3418322 137.186835,11.5312028 C136.399307,10.7408392 135.470428,10.2747273 134.42039,10.1328671 C134.258846,10.1126014 134.077109,10.0923357 133.895372,10.1126014 C133.713634,10.1328671 133.531897,10.1328671 133.35016,10.1328671 L133.35016,9.28170629 L134.198267,9.28170629 C135.369463,9.28170629 136.358921,8.87639161 137.186835,8.06576224 C137.994556,7.23486713 138.398416,6.24184615 138.398416,5.06643357 C138.398416,3.89102098 137.994556,2.898 137.186835,2.0671049 C136.358921,1.25647552 135.369463,0.851160839 134.198267,0.851160839 L130.826032,0.851160839 L130.826032,18.6647413 L132.522246,18.6647413 L132.522246,20.2657343 L125.777775,20.2657343 L125.777775,18.6647413 L127.473989,18.6647413 L127.473989,0.851160839 L125.777775,0.851160839 L125.777775,0 L134.198267,0 C135.591586,0 136.782974,0.486377622 137.772433,1.4793986 C138.761891,2.47241958 139.246524,3.6680979 139.246524,5.06643357 C139.226331,6.12025175 138.943628,7.07274126 138.35803,7.94416783 C137.75224,8.81559441 136.964712,9.44383217 136.015639,9.78834965 C136.964712,10.2139301 137.711854,10.8219021 138.297451,11.6122657 C138.923435,12.4431608 139.246524,13.3551189 139.246524,14.3481399 L139.246524,18.6647413 L140.922545,18.6647413 L140.922545,20.2657343 Z" id="der"></path>
                </g>
                <g id="Scarlet" transform="translate(85.584350, 23.445301) scale(-1, 1) rotate(24.000000) translate(-85.584350, -23.445301) translate(71.084350, 4.445301)" fill="#EF363F">
                    <path d="M13.8017709,4.13135411 C13.4099976,3.5020117 12.5929401,3.30989665 11.9230261,3.17589791 C11.9339933,-0.748910168 6.3117724,-0.432432242 3.89289221,0.92261121 C0.593283723,2.77149272 -0.0294103714,6.3497108 0.0988451149,9.86228455 C0.243856068,13.8400899 0.985970949,16.9916198 3.50050963,20.1738641 C5.98641169,23.3193716 9.84352027,25.0104659 13.8023802,25.7045492 C15.6990991,26.0372877 17.4221705,26.1661674 18.8323715,27.6991732 C20.022619,28.992788 20.8573459,30.6844845 21.6868939,32.1813558 C22.3991535,33.4668404 22.8795785,35.2557988 23.7368491,36.4325788 C24.8807906,38.0047303 26.2763687,36.9077474 27.5260219,35.8339507 C28.9682107,34.5945376 28.3555699,34.7782213 27.0775847,33.6408882 C26.2708851,32.922414 25.6317402,31.8856552 25.0599218,31.0154162 C23.8318983,29.1460585 22.7665552,27.1613715 21.5360947,25.2742477 C22.6133189,25.4404663 23.495875,26.0237372 24.5453766,26.2495778 C22.2651098,23.986053 20.6276437,21.6150281 19.0724317,18.7182463 C17.553777,15.8904212 16.4637577,13.1116787 14.1444964,10.771067 C12.6072584,9.21999395 10.7449644,7.93089595 10.9719248,5.60654474 C11.9802993,5.37377839 13.0432052,4.60531819 14.0808256,4.63452691 C13.9647559,4.48486989 13.9047409,4.27860216 13.8017709,4.13135411" id="Fill-18"></path>
                    <path d="M6.82679311,22.8474096 C6.11544736,23.1208273 4.66015886,24.3192879 3.69108356,24.2331674 C2.74698914,24.1488536 2.18156828,22.5670662 1.06656809,23.5824454 C3.23442092,22.9377459 2.72200826,25.7821326 4.19892655,26.5096404 C3.85284998,25.2711307 3.64630077,25.1031053 4.85635015,24.4370262 C5.60821367,24.0232862 6.52976437,23.5893712 7.34072899,23.2774101" id="Fill-19"></path>
                    <path d="M9.9318672,24.5206525 C9.44017039,25.0982022 7.89034697,28.4829203 6.99773753,28.8665482 C6.1282811,29.239938 4.86552815,28.1197687 4.37901031,29.5386498 C5.17569914,28.7403111 5.80664546,29.0301318 6.44549842,29.5102599 C6.51466639,29.5622429 6.42984543,30.0078825 5.65308066,30.6905538 C5.92475512,30.9448593 6.83068129,29.8139632 6.92047974,29.8853704 C7.41011522,30.2747257 7.92816844,30.6470405 8.54777058,30.6241901 C7.64327999,29.7003516 7.38067612,29.6506667 8.11943991,28.4931584 C8.57884436,27.7737809 10.1477486,25.3820118 10.7085998,24.7237618" id="Fill-20"></path>
                </g>
            </g>
        </g>
    </g>
</svg>