<?xml version="1.0" encoding="utf-8"?>
<!-- Generator: Adobe Illustrator 20.0.0, SVG Export Plug-In . SVG Version: 6.00 Build 0)  -->
<svg version="1.1" id="Layer_1" xmlns="http://www.w3.org/2000/svg" xmlns:xlink="http://www.w3.org/1999/xlink" x="0px" y="0px"
	 viewBox="0 0 84.6 94.9" style="enable-background:new 0 0 84.6 94.9;" xml:space="preserve">
<style type="text/css">
	.st0{fill:#FFFFFF;}
</style>
<g>
	<g>
		<path class="st0" d="M33.3,51.3c-2.8,4.6-10.8,6.3-15.8,5c1.5,0.9,4.3,1.3,6.5,1.4c-1.3,1.3-2.8,2-3.7,2.3
			c2.2,0.3,7.2-2.3,8.5-3.6C28.5,57,25,60,24.4,60.6c3.3-0.8,5.6-3.4,8.2-5.2c-0.9,3.7-2.2,7.5-1.2,11.6c1,4.7,1.9,7.4,0,12.2
			c-1.4,3.9-4.1,7.2-6,11.1c-1,1.9-2.1,2.5,0.2,4.1c1.6,1,3.7,0.4,4.9-1c1.9-2.5,1.6-7.8,2.9-10.7c1.4-3.7,4.3-6.6,5.2-10.5
			c0.7-3.1,0-5.7,1.5-8C37.7,59.7,35.6,56.2,33.3,51.3C33.3,51.3,33.3,51.2,33.3,51.3z"/>
	</g>
	<g>
		<path class="st0" d="M68.9,52.8c1.9,3.7,1.7,7,2.7,10.5c1,3.5,4.1,4.9,5.2,8.9c1,2.2,1.5,4.7,2.6,7.1c1.2,0.7,2.5-0.2,2.5-1.7
			c7.6-0.6-3.1-8.9-3.3-10.1c-1-3.7-1.2-9.5-1.2-13.2c0-4.3,2.1-8,1.4-12.6c-0.4-4.5-2.1-8.5-4.5-12.2c-4.9-7.6-7.1-12.4-15.2-16.5
			c-5.6-2.9-14.4-8.1-20.8-7.3C36,5.9,28.1,6.6,26.5,7.8c-1-2.9-7.6-2.9-10.3-3.3C12.5,3.9,8.6,3.1,5.9,0c2.9,5.2,7.2,9.3,12.2,8.7
			l-0.8,0.4c-1,1-2.9,1.4-4.1,2.7c-1.4,1.4-2.5,3.9-3.5,5.8c-0.3,0.6-0.5,1.1-0.8,1.7l0,0c0,0,0,0,0,0.1c0,0.1-0.1,0.1-0.1,0.2
			c-3.2,1-7.2,0.2-8.8-2.3c0.6,2.9,1.5,5.5,4.8,6.2c0.9,0.2,2.1,0,2.8-0.4c-0.8,2.2-1.2,3.5-2.2,5.7C4,31.7-0.6,36,1.5,39.5
			c2.5,4.7,6.6,1.7,9.9,0.6c1.6-0.6,3.7-0.2,5.6-0.2c2.1-0.2,3.5-0.8,5.8-1.4c4.5-1.4,7.8,2.5,9.7,6.8c0.7,1.6,1,3.2,1,4.8
			c2.5,4,4.7,7.8,8.2,12.5l0,0c2.9,2.5,3.7,4.5,2.9,8c-0.4,1.9-2.5,6.6-0.6,8.2c2.1,1.9,6.6-3.1,7.2-4.7c0.8-2.9-2.3-5.4-1.2-8.5
			c0-0.1,0,0,0-0.1c0.1-11.7-9.7-15.3-16.4-23.9c4.7,4.1,8.2,6.4,13.2,10.9c2.5,2.1,5.6,7.6,5.1,11.3c-0.1,0.5-0.1,1-0.2,1.4
			c2.4-1.4,5.8-4.7,8.4-3.9c0,0,0,0,0.1,0.1c1.4,4.7,7.2,5.8,9.7,9.7c2.3,3.7,2.7,9.3,4.3,13.4c1,2.7-1.5,9.9,4.9,9.1
			c6.2-0.8,1-7.2,0.4-9.9c-0.2-0.8-0.4-1.7-0.6-2.5c-1.1-1.3-1.8-3.6-2.1-4.9c-0.4-1.9-1.9-3.9-2.5-5.8c-1-2.3-2.7-3.1-3.9-5.2
			c-2.1-3.1-1-8-2.3-11.8c-1.2-3.4-2.8-7.7-5.3-10.2C65.7,46,67.3,49.4,68.9,52.8z"/>
	</g>
</g>
</svg>
