<?xml version="1.0" encoding="UTF-8"?>
<svg width="900px" height="300px" viewBox="0 0 900 300" version="1.1" xmlns="http://www.w3.org/2000/svg" xmlns:xlink="http://www.w3.org/1999/xlink">
    <!-- Generator: Sketch 43.2 (39069) - http://www.bohemiancoding.com/sketch -->
    <title>big</title>
    <desc>Created with Sketch.</desc>
    <defs></defs>
    <g id="Page-1" stroke="none" stroke-width="1" fill="none" fill-rule="evenodd">
        <g id="big">
            <g id="Logo" transform="translate(30.000000, 18.000000)">
                <g id="Text" transform="translate(0.000000, 65.861538)" fill="#FFFFFF">
                    <path d="M21.0302366,110.803385 L21.0302366,5.05292308 L15.8512267,5.05292308 L15.8512267,110.803385 L21.0302366,110.803385 Z M81.2512827,120.307692 L0.916407223,120.307692 L0.916407223,110.803385 L10.9131009,110.803385 L10.9131009,5.05292308 L0.916407223,5.05292308 L0.916407223,0 L41.0236239,0 L41.0236239,5.05292308 L31.0269303,5.05292308 L31.0269303,110.803385 L76.0722727,110.803385 L76.0722727,100.216308 L81.2512827,100.216308 L81.2512827,120.307692 Z M128.076492,5.05292308 L123.138366,5.05292308 L104.469842,110.803385 L109.407968,110.803385 L128.076492,5.05292308 Z M142.529543,55.1009231 L135.905228,17.5649231 L129.280913,55.1009231 L142.529543,55.1009231 Z M167.942824,120.307692 L142.890869,120.307692 L142.890869,110.803385 L152.285352,110.803385 L143.49308,60.1538462 L128.437818,60.1538462 L119.525103,110.803385 L127.835608,110.803385 L127.835608,120.307692 L87.607949,120.307692 L87.607949,110.803385 L99.290832,110.803385 L117.959356,5.05292308 L107.721778,5.05292308 L107.721778,0 L147.828995,0 L147.828995,5.05292308 L138.795838,5.05292308 L157.464362,110.803385 L167.942824,110.803385 L167.942824,120.307692 Z M241.867504,5.05292308 L236.929379,5.05292308 L183.934858,110.803385 L188.993426,110.803385 L241.867504,5.05292308 Z M254.513924,120.307692 L174.299491,120.307692 L174.299491,110.803385 L178.87629,110.803385 L231.870811,5.05292308 L179.237617,5.05292308 L179.237617,15.0384615 L174.299491,15.0384615 L174.299491,0 L254.513924,0 L254.513924,5.05292308 L252.105082,5.05292308 L199.110562,110.803385 L249.575798,110.803385 L249.575798,100.216308 L254.513924,100.216308 L254.513924,120.307692 Z M300.01427,63.0412308 L297.12366,56.7852308 L279.057346,110.803385 L283.995472,110.803385 L300.01427,63.0412308 Z M319.405447,5.05292308 L314.226437,5.05292308 L299.171176,50.4089231 L302.061786,56.7852308 L319.405447,5.05292308 Z M341.085024,5.05292308 L329.281699,5.05292308 L294.112608,110.803385 L300.857365,110.803385 L300.857365,120.307692 L260.87059,120.307692 L260.87059,110.803385 L274.119221,110.803385 L294.112608,50.4089231 L273.155684,5.05292308 L260.87059,5.05292308 L260.87059,0 L285.802104,0 L285.802104,5.05292308 L278.09381,5.05292308 L296.160123,44.1529231 L309.288312,5.05292308 L300.857365,5.05292308 L300.857365,0 L341.085024,0 L341.085024,5.05292308 Z M367.55552,110.923692 L367.55552,5.05292308 L362.496952,5.05292308 L362.496952,110.923692 L367.55552,110.923692 Z M419.827388,100.817846 C421.995345,96.8476923 423.079324,92.7572308 423.079324,88.7870769 C423.079324,84.8169231 422.477114,81.2076923 421.272693,77.9593846 C420.068272,74.9516923 418.382082,72.0643077 416.334567,69.5378462 C411.637325,64.124 405.976547,60.996 399.23179,60.1538462 C398.147811,60.0335385 397.063832,59.9132308 395.979853,60.0335385 C394.775432,60.1538462 393.691454,60.1538462 392.607475,60.1538462 L392.607475,55.2212308 L398.388695,55.2212308 C404.892568,55.2212308 410.553346,52.8150769 415.37103,47.8824615 C420.309156,42.9498462 422.717998,36.9344615 422.717998,30.0769231 C422.717998,23.0990769 420.309156,17.204 415.37103,12.2713846 C410.432904,7.45907692 404.531242,5.05292308 397.666043,5.05292308 L377.552213,5.05292308 L377.552213,110.923692 L410.794231,110.923692 C414.648378,108.276923 417.65943,104.908308 419.827388,100.817846 Z M426.331261,78.4406154 C427.294797,81.4483077 427.776566,84.6966154 427.776566,88.4261538 C427.776566,92.1556923 427.053913,95.8852308 425.488166,99.8553846 C423.922419,103.705231 421.874903,107.194154 419.225177,110.322154 C413.323515,116.939077 406.217431,120.307692 397.666043,120.307692 L347.44169,120.307692 L347.44169,110.923692 L357.438384,110.923692 L357.438384,5.05292308 L347.44169,5.05292308 L347.44169,0 L397.666043,0 C405.976547,0 413.08263,2.88738462 418.984293,8.78246154 C424.885955,14.6775385 427.776566,21.7756923 427.776566,30.0769231 C427.656124,36.2126154 425.849492,41.8670769 422.356672,47.0403077 C418.863851,52.0932308 414.287051,55.8227692 408.626273,58.1086154 C417.538988,62.3193846 423.44065,69.0566154 426.331261,78.4406154 Z M454.247061,110.803385 L454.247061,5.05292308 L449.308936,5.05292308 L449.308936,110.803385 L454.247061,110.803385 Z M474.240449,120.307692 L434.133232,120.307692 L434.133232,110.803385 L444.129926,110.803385 L444.129926,5.05292308 L434.133232,5.05292308 L434.133232,0 L474.240449,0 L474.240449,5.05292308 L464.243755,5.05292308 L464.243755,110.803385 L474.240449,110.803385 L474.240449,120.307692 Z" id="lazybi"></path>
                    <path d="M596.937192,110.803385 L596.937192,5.05292308 L591.999066,5.05292308 L591.999066,110.803385 L596.937192,110.803385 Z M652.220112,59.3116923 C652.220112,53.176 651.015691,47.1606154 648.847733,41.1452308 C646.438892,35.2501538 643.307397,29.8363077 639.332808,25.024 C635.358219,20.2116923 630.540535,16.1212308 625.000199,12.7526154 C619.459863,9.384 613.437758,7.09815385 607.054328,5.89507692 L607.054328,110.803385 L618.616768,110.803385 C628.854346,106.592615 637.044408,99.7350769 643.186955,90.4713846 C649.20906,81.328 652.220112,70.9815385 652.220112,59.3116923 Z M657.158238,60.1538462 C657.158238,68.4550769 655.592491,76.2750769 652.460996,83.4935385 C649.329502,90.9526154 644.993587,97.3289231 639.573692,102.742769 C634.153798,108.156615 627.770367,112.487692 620.4234,115.615692 C613.076432,118.743692 605.247696,120.307692 596.937192,120.307692 L576.943804,120.307692 L576.943804,110.803385 L586.940498,110.803385 L586.940498,5.05292308 L576.943804,5.05292308 L576.943804,0 L596.937192,0 C605.247696,0 612.95599,1.564 620.4234,4.692 C627.770367,7.82 634.153798,12.1510769 639.573692,17.5649231 C644.993587,22.9787692 649.329502,29.4753846 652.460996,36.8141538 C655.592491,44.0326154 657.158238,51.8526154 657.158238,60.1538462 Z M683.628734,110.803385 L683.628734,5.05292308 L678.570166,5.05292308 L678.570166,110.803385 L683.628734,110.803385 Z M743.84978,120.307692 L663.514904,120.307692 L663.514904,110.803385 L673.511598,110.803385 L673.511598,5.05292308 L663.514904,5.05292308 L663.514904,0 L743.84978,0 L743.84978,20.0913846 L738.791212,20.0913846 L738.791212,5.05292308 L693.625427,5.05292308 L693.625427,55.1009231 L713.739257,55.1009231 L713.739257,60.1538462 L693.625427,60.1538462 L693.625427,110.803385 L738.791212,110.803385 L738.791212,100.216308 L743.84978,100.216308 L743.84978,120.307692 Z M768.995412,110.803385 L768.995412,5.05292308 L764.539055,5.05292308 L764.539055,110.803385 L768.995412,110.803385 Z M840.538015,120.307692 L815.48606,120.307692 L815.48606,110.803385 L825.482754,110.803385 L825.482754,85.1778462 C825.482754,78.8015385 823.073912,73.2673846 818.256228,68.4550769 C813.558986,63.7630769 808.01865,60.996 801.755661,60.1538462 C800.792125,60.0335385 799.708146,59.9132308 798.624167,60.0335385 C797.540188,60.1538462 796.456209,60.1538462 795.372231,60.1538462 L795.372231,55.1009231 L800.430798,55.1009231 C807.41644,55.1009231 813.318102,52.6947692 818.256228,47.8824615 C823.073912,42.9498462 825.482754,37.0547692 825.482754,30.0769231 C825.482754,23.0990769 823.073912,17.204 818.256228,12.2713846 C813.318102,7.45907692 807.41644,5.05292308 800.430798,5.05292308 L780.316969,5.05292308 L780.316969,110.803385 L790.434105,110.803385 L790.434105,120.307692 L750.206446,120.307692 L750.206446,110.803385 L760.323582,110.803385 L760.323582,5.05292308 L750.206446,5.05292308 L750.206446,0 L800.430798,0 C808.741303,0 815.847386,2.88738462 821.749049,8.78246154 C827.650711,14.6775385 830.541321,21.7756923 830.541321,30.0769231 C830.420879,36.3329231 828.73469,41.9873846 825.241869,47.1606154 C821.628607,52.3338462 816.931365,56.0633846 811.270587,58.1086154 C816.931365,60.6350769 821.387722,64.2443077 824.880543,68.9363077 C828.614248,73.8689231 830.541321,79.2827692 830.541321,85.1778462 L830.541321,110.803385 L840.538015,110.803385 L840.538015,120.307692 Z" id="der"></path>
                </g>
                <g id="Scarlet" transform="translate(510.897918, 136.480884) scale(-1, 1) rotate(24.000000) translate(-510.897918, -136.480884) translate(425.897918, 25.980884)" fill="#EF363F">
                    <path d="M82.3212011,24.5258164 C79.9844541,20.7897203 75.1110826,19.6492277 71.1153542,18.8537432 C71.1807685,-4.44591116 37.6468127,-2.56713744 23.2193074,5.47708877 C3.53866391,16.4529885 -0.175419307,37.6951085 0.589565543,58.5475305 C1.45448903,82.1618034 5.88086218,100.870886 20.8789262,119.762304 C35.706186,138.435635 58.7120606,148.474829 82.3248353,152.595261 C93.6378891,154.570565 103.915215,155.33566 112.326415,164.436362 C119.425692,172.115916 124.404453,182.158686 129.352324,191.044874 C133.600625,198.676163 136.466138,209.29633 141.579363,216.282293 C148.402446,225.615383 156.726426,219.103135 164.180031,212.728533 C172.782023,205.370747 169.127902,206.461187 161.50531,199.7094 C156.693719,195.444172 152.881514,189.289445 149.470881,184.123264 C142.146287,173.025807 135.792007,161.243698 128.452877,150.040772 C134.878023,151.02753 140.142063,154.490123 146.401856,155.830827 C132.801116,142.393394 123.034385,128.317786 113.758263,111.121018 C104.700188,94.3336115 98.1987252,77.8375849 84.3654006,63.9425249 C75.1964847,54.7345673 64.0887593,47.0818267 65.4424736,33.2832974 C71.4569626,31.9014781 77.7967064,27.339508 83.9856337,27.5129058 C83.2933315,26.6244657 82.9353695,25.3999557 82.3212011,24.5258164" id="Fill-18"></path>
                    <path d="M40.7186738,135.633829 C36.4758243,137.256975 27.7956993,144.371646 22.0156119,143.860391 C16.3845239,143.359861 13.0120491,133.969568 6.36158698,139.997374 C19.2918297,136.17011 16.2355245,153.055835 25.0446612,157.374691 C22.980474,150.022268 21.7485032,149.024784 28.9658899,145.0706 C33.4504092,142.614429 38.9470343,140.038489 43.7840644,138.18653" id="Fill-19"></path>
                    <path d="M59.2390093,145.567048 C56.3062645,148.995676 47.0622823,169.089083 41.7382785,171.366492 C36.5523717,173.583124 29.0206325,166.93323 26.1187778,175.356429 C30.8706594,170.617085 34.6339633,172.337608 38.4444268,175.187892 C38.8569818,175.49649 38.3510639,178.142033 33.7180201,182.194716 C35.338433,183.704403 40.741865,176.990829 41.2774714,177.414739 C44.1979213,179.72615 47.2878699,181.936399 50.9835111,181.800748 C45.5886417,176.316373 44.0223306,176.021418 48.4287161,169.149861 C51.1688518,164.879271 60.5266425,150.680515 63.8718613,146.772808" id="Fill-20"></path>
                </g>
            </g>
        </g>
    </g>
</svg>